<svg width="62" height="64" viewBox="0 0 62 64" fill="none" xmlns="http://www.w3.org/2000/svg">
<path d="M39.0142 52.814C39.0142 52.814 41.2793 52.9536 42.0705 56.2272C42.0705 56.2272 42.3033 58.5388 43.8702 58.7716C42.7532 59.0043 42.2877 59.4697 42.2102 59.9041C41.0931 58.6785 40.7518 57.1736 40.6122 56.3047C40.4725 55.3273 39.2314 53.8069 39.2314 53.8069L39.0142 52.814Z" fill="#E5880E"/>
<path d="M34.499 50.5178C34.499 50.5178 39.0293 49.6489 40.9065 52.6588C43.4199 56.677 46.3832 56.3047 48.307 55.4979C47.0503 56.646 46.9417 57.9182 46.9417 57.9182C46.9417 57.9182 42.4425 57.9648 40.5963 54.7998C39.4016 53.2173 38.4087 52.907 38.4087 52.907L34.499 50.5178Z" fill="#E8AE08"/>
<path d="M34.4219 50.2851L36.7956 41.5349" stroke="#404936" stroke-width="0.396196" stroke-miterlimit="10"/>
<path d="M38.7968 60.4161H27.1764C26.835 60.4161 26.5713 60.1369 26.5713 59.8111V50.9988H39.4174V59.7955C39.4174 60.1369 39.1381 60.4161 38.7968 60.4161Z" fill="#61664A"/>
<path d="M22.5684 40.573L30.217 50.735" stroke="#404936" stroke-width="0.396196" stroke-miterlimit="10"/>
<path d="M44.0253 40.573L36.3921 50.735" stroke="#404936" stroke-width="0.396196" stroke-miterlimit="10"/>
<path d="M32.1877 50.2851L29.814 41.5349" stroke="#404936" stroke-width="0.396196" stroke-miterlimit="10"/>
<path d="M55.7077 21.49C55.7077 32.164 49.1606 40.9453 40.7827 41.9692C46.7558 38.6181 50.9603 30.7211 50.9603 21.49C50.9603 12.2743 46.7558 4.36189 40.7827 1.01074C49.1606 2.05022 55.7077 10.816 55.7077 21.49Z" fill="#404936"/>
<path d="M25.6404 41.9692C17.2625 40.9453 10.7153 32.164 10.7153 21.49C10.7153 10.816 17.2625 2.0347 25.6404 1.01074C19.6672 4.36189 15.4628 12.2743 15.4628 21.49C15.4628 30.7211 19.6672 38.6181 25.6404 41.9692Z" fill="#404936"/>
<path d="M32.6684 3.02784C32.6684 0.88683 30.5119 -0.556025 28.5105 0.235218C27.9519 0.452422 27.3934 0.716169 26.8504 1.02646C20.8773 4.37761 16.6729 12.29 16.6729 21.5057C16.6729 30.7214 20.8773 38.6338 26.8504 41.9849C27.3934 42.2797 27.9364 42.5435 28.5105 42.7762C30.4963 43.5674 32.6684 42.1246 32.6684 39.9835V3.02784Z" fill="#547147"/>
<path d="M28.1227 48.1285C27.2694 50.3936 32.6374 51.1228 32.6374 51.1228C32.6374 51.1228 32.4357 53.9465 33.0563 50.828C33.6769 47.7096 31.8152 45.3824 31.1791 45.1031C30.543 44.7929 28.976 45.8478 28.1227 48.1285ZM31.8307 47.3372C32.3737 47.8803 32.9632 49.9592 32.9632 49.9592L32.7771 50.5488C32.7771 50.5488 29.5035 49.5558 29.9379 48.7025C30.3723 47.8492 31.3032 46.7942 31.8307 47.3372Z" fill="#E5880E"/>
<path d="M39.6656 1.01084C39.1226 0.716059 38.5796 0.452311 38.0056 0.219593C36.0197 -0.57165 33.8477 0.871205 33.8477 3.01222V39.9679C33.8477 42.1089 36.0042 43.5518 38.0056 42.7606C38.5641 42.5433 39.1226 42.2796 39.6656 41.9693C45.6387 38.6182 49.8432 30.7212 49.8432 21.4901C49.8432 12.2744 45.6387 4.3775 39.6656 1.01084Z" fill="#547147"/>
<path d="M33.6151 51.6504H32.3584V60.4472H33.6151V51.6504Z" fill="white"/>
<path d="M39.4277 56.1956V54.939H26.4731V56.1956H39.4277Z" fill="white"/>
<path d="M34.7629 44.9791C32.3427 44.7619 33.1029 50.1299 33.1029 50.1299C33.1029 50.1299 30.3258 50.7039 33.5063 50.4557C36.6712 50.2075 38.4089 47.7872 38.5175 47.1046C38.6261 46.4219 37.1832 45.1963 34.7629 44.9791ZM36.5316 48.3612C36.1593 49.0284 34.313 50.1609 34.313 50.1609L33.708 50.1454C33.708 50.1454 33.7855 46.7167 34.7164 46.9184C35.6473 47.1046 36.904 47.6941 36.5316 48.3612Z" fill="#E8AE08"/>
<path opacity="0.64" d="M26.5713 51.6969L39.4174 51.6814V52.4882L26.5713 52.0382V51.6969Z" fill="#61664A"/>
<path opacity="0.32" d="M33.0254 64.0001C38.8605 64.0001 43.5908 63.75 43.5908 63.4416C43.5908 63.1331 38.8605 62.8831 33.0254 62.8831C27.1903 62.8831 22.46 63.1331 22.46 63.4416C22.46 63.75 27.1903 64.0001 33.0254 64.0001Z" fill="#506C44"/>
<path d="M39.6965 51.697H26.2764C26.0902 51.697 25.9351 51.5419 25.9351 51.3557V50.3938C25.9351 50.2076 26.0902 50.0525 26.2764 50.0525H39.6965C39.8827 50.0525 40.0378 50.2076 40.0378 50.3938V51.3557C40.0378 51.5419 39.8827 51.697 39.6965 51.697Z" fill="#3E432F"/>
<path d="M33.8319 50.0525H32.1719V51.697H33.8319V50.0525Z" fill="white"/>
<path d="M50.7274 42.5744L50.9136 43.4277C50.9291 43.4897 50.9602 43.5363 51.0222 43.5518L51.829 43.8776C51.9686 43.9397 51.9841 44.1103 51.8445 44.1879L51.0843 44.6223C51.0377 44.6533 51.0067 44.6999 50.9912 44.7619L50.9291 45.6308C50.9136 45.7704 50.743 45.848 50.6344 45.7549L49.9827 45.1808C49.9362 45.1498 49.8741 45.1343 49.8276 45.1343L48.9743 45.336C48.8347 45.367 48.7105 45.2274 48.7726 45.0877L49.1294 44.281C49.145 44.2344 49.145 44.1724 49.1139 44.1258L48.6485 43.3811C48.5709 43.257 48.664 43.1019 48.8191 43.1174L49.688 43.2105C49.75 43.2105 49.7966 43.195 49.8431 43.1484L50.4016 42.4813C50.5257 42.3882 50.6964 42.4347 50.7274 42.5744Z" fill="#E8AE08"/>
<path d="M15.1679 44.2344L15.9592 44.6068C16.0057 44.6378 16.0678 44.6223 16.1298 44.6068L16.8901 44.1724C17.0142 44.0948 17.1693 44.2034 17.1538 44.343L17.0452 45.2118C17.0452 45.2739 17.0607 45.3204 17.1073 45.367L17.7589 45.9565C17.8675 46.0496 17.8209 46.2358 17.6813 46.2668L16.828 46.422C16.7659 46.4375 16.7194 46.4685 16.7039 46.5306L16.347 47.3218C16.285 47.4614 16.0988 47.4614 16.0367 47.3373L15.6179 46.5771C15.5868 46.5306 15.5403 46.4995 15.4782 46.484L14.6094 46.3909C14.4698 46.3754 14.4077 46.2048 14.5008 46.0962L15.1059 45.4601C15.1524 45.4135 15.1679 45.367 15.1524 45.3049L14.9662 44.4516C14.8887 44.2965 15.0283 44.1724 15.1679 44.2344Z" fill="#E8AE08"/>
<path d="M2.29099 21.9864L2.35305 22.8552C2.35305 22.9173 2.38408 22.9638 2.44614 22.9949L3.20635 23.4448C3.33047 23.5224 3.31496 23.7085 3.19084 23.7551L2.38408 24.0809C2.33754 24.0964 2.29099 24.1429 2.27548 24.205L2.0893 25.0583C2.05827 25.1979 1.8721 25.2445 1.77901 25.1359L1.22049 24.4687C1.18946 24.4222 1.1274 24.4067 1.06534 24.4067L0.196526 24.4843C0.056895 24.4998 -0.0517056 24.3446 0.0258673 24.2205L0.491304 23.4758C0.522334 23.4293 0.522332 23.3672 0.506818 23.3207L0.165497 22.5139C0.103439 22.3743 0.227556 22.2347 0.367187 22.2812L1.22049 22.4984C1.28255 22.5139 1.32909 22.4984 1.37563 22.4519L2.02725 21.8778C2.10482 21.7692 2.27548 21.8468 2.29099 21.9864Z" fill="#E8AE08"/>
<path d="M59.2607 12.0727L59.9278 12.6467C59.9744 12.6777 60.0364 12.6932 60.083 12.6777L60.9363 12.4605C61.0759 12.4295 61.2 12.5691 61.138 12.6932L60.7967 13.5C60.7811 13.5465 60.7811 13.6086 60.8122 13.6551L61.2776 14.3998C61.3552 14.524 61.2621 14.6791 61.1069 14.6636L60.2381 14.586C60.1761 14.586 60.1295 14.6015 60.083 14.6481L59.5245 15.3152C59.4314 15.4238 59.2452 15.3773 59.2142 15.2376L59.0125 14.3843C58.997 14.3223 58.9659 14.2757 58.9039 14.2602L58.0971 13.9344C57.9575 13.8879 57.942 13.7017 58.0661 13.6241L58.8108 13.1742C58.8573 13.1432 58.8884 13.0966 58.8884 13.0346L58.9349 12.1657C58.9814 12.0416 59.1521 11.9796 59.2607 12.0727Z" fill="#E8AE08"/>
<path opacity="0.33" d="M49.9209 21.49C49.9209 20.5436 49.8744 19.6128 49.7813 18.6819C47.5162 31.5745 34.7166 35.9961 33.9409 36.2599V39.9524C33.9409 42.0934 36.0974 43.5362 38.0988 42.745C38.6573 42.5278 39.2159 42.264 39.7589 41.9537C45.732 38.6181 49.9209 30.7212 49.9209 21.49Z" fill="#547147"/>
<path opacity="0.33" d="M55.6302 23.5071C53.7374 29.2475 48.7417 34.2897 46.942 35.9653C45.2819 38.5562 43.172 40.6197 40.7827 41.9694C48.6176 41.0075 54.8544 33.2502 55.6302 23.5071Z" fill="#404936"/>
<path opacity="0.33" d="M32.7617 28.301C32.6065 30.2869 31.2568 33.7466 26.8661 34.7861C22.491 35.8256 18.4107 30.442 18.0073 29.899C19.6674 35.3446 22.9099 39.7198 26.9592 41.9849C27.5022 42.2797 28.0453 42.5434 28.6193 42.7761C30.6052 43.5674 32.7772 42.1245 32.7772 39.9835V28.301H32.7617Z" fill="#547147"/>
<path opacity="0.33" d="M16.968 37.5943C19.3882 39.999 22.367 41.566 25.6251 41.9694C21.1879 39.487 17.7282 34.4758 16.2388 28.301C17.03 32.49 17.03 35.9652 16.968 37.5943Z" fill="#404936"/>
<path opacity="0.39" d="M28.6038 0.235218C28.0453 0.452422 27.4868 0.716169 26.9437 1.02646C22.2428 3.66394 18.659 9.10955 17.3247 15.7808C18.5193 12.6624 22.6152 4.70341 32.7462 6.5031V3.02784C32.7617 0.88683 30.5897 -0.556025 28.6038 0.235218Z" fill="#547147"/>
<path opacity="0.39" d="M25.6405 1.01074C17.5419 2.00367 11.1499 10.2419 10.731 20.4505C12.903 11.2193 19.0933 6.7201 20.1793 5.99092C21.7308 3.88094 23.577 2.17433 25.6405 1.01074Z" fill="#404936"/>
<path opacity="0.39" d="M38.7194 6.14616C42.7066 5.19977 45.189 6.8288 46.787 8.48886C45.0183 5.21529 42.5825 2.60884 39.7589 1.01084C39.2159 0.716059 38.6729 0.452311 38.0988 0.219593C36.113 -0.57165 33.9409 0.871205 33.9409 3.01222V13.4535C34.515 10.3351 35.8027 6.84431 38.7194 6.14616Z" fill="#547147"/>
<g opacity="0.39">
<path d="M50.1999 14.8189L50.2154 14.8499C50.2154 14.8499 50.1999 14.7723 50.1533 14.6172C50.1688 14.6948 50.1843 14.7568 50.1999 14.8189Z" fill="#404936"/>
<path d="M48.5555 4.56369C46.3059 2.62437 43.6529 1.36769 40.7827 1.02637C44.9561 3.36907 48.2452 7.91484 49.8743 13.5932C49.3157 11.3901 48.2918 6.93742 48.5555 4.56369Z" fill="#404936"/>
</g>
</svg>
